<?xml version="1.0" encoding="UTF-8"?>
<svg xmlns="http://www.w3.org/2000/svg" xmlns:xlink="http://www.w3.org/1999/xlink" width="471.19pt" height="261.07pt" viewBox="0 0 471.19 261.07" version="1.1">
<g id="surface1">
<path style=" stroke:none;fill-rule:nonzero;fill:rgb(100%,94.898987%,0%);fill-opacity:1;" d="M 443.960938 261.070313 L 27.234375 261.070313 C 12.195313 261.070313 0 248.878906 0 233.835938 L 0 27.234375 C 0 12.195313 12.195313 0 27.234375 0 L 443.960938 0 C 459 0 471.195313 12.195313 471.195313 27.234375 L 471.195313 233.835938 C 471.195313 248.878906 459 261.070313 443.960938 261.070313 "/>
<path style=" stroke:none;fill-rule:nonzero;fill:rgb(1.998901%,49.798584%,56.898499%);fill-opacity:1;" d="M 125.5625 114.484375 C 135.28125 106.589844 136.753906 92.308594 128.859375 82.59375 C 124.378906 77.085938 117.851563 74.226563 111.265625 74.222656 L 90.324219 74.226563 C 85.339844 74.253906 80.332031 75.910156 76.164063 79.300781 C 70.652344 83.777344 67.796875 90.3125 67.796875 96.902344 L 67.792969 96.898438 L 67.792969 128.335938 C 67.792969 128.335938 72.636719 120.351563 85.058594 119.535156 L 85.058594 119.539063 L 89.574219 119.539063 C 90.207031 119.566406 90.84375 119.566406 91.476563 119.539063 L 110.375 119.539063 C 115.691406 119.753906 121.109375 118.105469 125.5625 114.484375 "/>
<path style=" stroke:none;fill-rule:nonzero;fill:rgb(1.998901%,49.798584%,56.898499%);fill-opacity:1;" d="M 132.082031 171.578125 C 142.796875 162.871094 144.421875 147.125 135.714844 136.410156 C 130.777344 130.339844 123.578125 127.1875 116.316406 127.183594 L 92.625 127.1875 C 87.132813 127.21875 81.609375 129.046875 77.015625 132.78125 C 70.9375 137.71875 67.789063 144.925781 67.785156 152.1875 L 67.785156 186.847656 C 67.785156 186.847656 73.121094 178.046875 86.820313 177.144531 L 86.820313 177.152344 L 91.800781 177.152344 C 92.496094 177.179688 93.195313 177.179688 93.894531 177.152344 L 115.335938 177.152344 C 121.199219 177.382813 127.171875 175.570313 132.082031 171.578125 "/>
<path style=" stroke:none;fill-rule:nonzero;fill:rgb(1.998901%,49.798584%,56.898499%);fill-opacity:1;" d="M 178.140625 157.683594 C 180.789063 158.363281 185.28125 158.925781 189.984375 158.925781 C 200.722656 158.925781 204.507813 153.285156 204.507813 140.625 C 204.507813 127.828125 200.722656 122.175781 190.339844 122.175781 C 187.460938 122.175781 182.832031 122.996094 178.140625 124.476563 Z M 158.660156 92.316406 C 158.660156 90.359375 160.152344 88.851563 162.117188 88.851563 L 174.683594 88.851563 C 176.636719 88.851563 178.140625 90.359375 178.140625 92.316406 L 178.140625 111.460938 C 182.832031 109.949219 187.460938 108.574219 194.375 108.574219 C 212.351563 108.574219 224.589844 119.398438 224.589844 140.625 C 224.589844 161.707031 212.464844 172.535156 188.839844 172.535156 C 177.898438 172.535156 164.640625 169.660156 158.660156 166.203125 L 158.660156 92.316406 "/>
<path style=" stroke:none;fill-rule:nonzero;fill:rgb(1.998901%,49.798584%,56.898499%);fill-opacity:1;" d="M 238.070313 172.070313 C 236.101563 172.070313 234.597656 170.589844 234.597656 168.613281 L 234.597656 115.265625 C 234.597656 113.289063 236.101563 111.796875 238.070313 111.796875 L 250.632813 111.796875 C 252.589844 111.796875 254.078125 113.289063 254.078125 115.265625 L 254.078125 168.613281 C 254.078125 170.589844 252.589844 172.070313 250.632813 172.070313 Z M 234.46875 95.308594 C 234.46875 91.28125 236.796875 88.851563 240.832031 88.851563 L 247.871094 88.851563 C 251.882813 88.851563 254.066406 91.28125 254.066406 95.308594 L 254.066406 99.585938 C 254.066406 103.621094 251.882813 106.023438 247.871094 106.023438 L 240.832031 106.023438 C 236.796875 106.023438 234.46875 103.621094 234.46875 99.585938 L 234.46875 95.308594 "/>
<path style=" stroke:none;fill-rule:nonzero;fill:rgb(1.998901%,49.798584%,56.898499%);fill-opacity:1;" d="M 288.144531 172.332031 C 272.035156 172.332031 263.976563 164.277344 263.976563 146.972656 L 263.976563 92.316406 C 263.976563 90.359375 265.449219 88.851563 267.421875 88.851563 L 279.984375 88.851563 C 281.953125 88.851563 283.453125 90.359375 283.453125 92.316406 L 283.453125 112.4375 L 299.753906 112.4375 C 301.75 112.4375 303.226563 113.945313 303.226563 115.894531 L 303.226563 123.648438 C 303.226563 125.601563 301.75 127.097656 299.753906 127.097656 L 283.453125 127.097656 L 283.453125 146.972656 C 283.453125 154.820313 287.464844 158.972656 293.367188 158.972656 C 296.332031 158.972656 298.542969 158.277344 301.089844 158.277344 L 303.144531 158.277344 C 305.113281 158.277344 306.601563 159.773438 306.601563 161.742188 L 306.601563 167.726563 C 306.601563 169.453125 305.113281 170.816406 303.144531 171.183594 C 299.675781 171.882813 293.367188 172.332031 288.144531 172.332031 "/>
<path style=" stroke:none;fill-rule:nonzero;fill:rgb(1.998901%,49.798584%,56.898499%);fill-opacity:1;" d="M 329.539063 134.425781 L 354.933594 134.425781 C 354.589844 125.789063 350.5625 121.164063 342.273438 121.164063 C 334.242188 121.164063 329.980469 125.789063 329.539063 134.425781 M 329.636719 146.308594 C 330.429688 155.53125 334.449219 159.582031 343.632813 159.582031 C 348.332031 159.582031 352.472656 158.179688 354.378906 155.757813 C 355.835938 153.910156 357.835938 152.777344 360.625 152.777344 L 368.804688 152.777344 C 370.726563 152.777344 372.160156 154.257813 372.160156 156.21875 C 372.160156 168.203125 360.195313 172.351563 342.273438 172.351563 C 322.375 172.351563 310.414063 161.269531 310.414063 140.441406 C 310.414063 119.695313 322.496094 108.394531 342.273438 108.394531 C 362.203125 108.394531 374.167969 119.355469 374.167969 139.621094 L 374.167969 142.863281 C 374.167969 144.816406 372.734375 146.308594 370.824219 146.308594 L 329.636719 146.308594 "/>
<path style=" stroke:none;fill-rule:nonzero;fill:rgb(1.998901%,49.798584%,56.898499%);fill-opacity:1;" d="M 387.414063 172.238281 C 385.433594 172.238281 383.945313 170.757813 383.945313 168.78125 L 383.945313 92.339844 C 383.945313 90.382813 385.433594 88.875 387.414063 88.875 L 399.96875 88.875 C 401.898438 88.875 403.410156 90.382813 403.410156 92.339844 L 403.410156 168.78125 C 403.410156 170.757813 401.898438 172.238281 399.96875 172.238281 L 387.414063 172.238281 "/>
</g>
</svg>
