<?xml version="1.0" encoding="UTF-8"?>
<svg xmlns="http://www.w3.org/2000/svg" xmlns:xlink="http://www.w3.org/1999/xlink" width="425pt" height="425pt" viewBox="0 0 425 425" version="1.1">
<g id="surface1">
<rect x="0" y="0" width="425" height="425" style="fill:rgb(0%,64.256287%,85.9375%);fill-opacity:1;stroke:none;"/>
<path style=" stroke:none;fill-rule:evenodd;fill:rgb(100%,100%,100%);fill-opacity:1;" d="M 100.074219 225.445313 C 132.816406 196.828125 137.148438 339.726563 224.410156 314.21875 C 256.402344 304.867188 259.605469 279.957031 270.214844 247.679688 C 278.445313 222.644531 291.035156 177.21875 318.546875 185.59375 C 342.15625 192.785156 315.789063 264.242188 330.652344 277.902344 C 339.460938 286 351.121094 280.355469 356.242188 272.640625 C 372.28125 248.476563 369.878906 115 320.917969 101.410156 C 273.964844 88.378906 255.746094 149.347656 245.5625 174.640625 C 238.992188 190.964844 230.683594 214.882813 206.382813 208.375 C 178.777344 200.984375 165.730469 146.082031 136.21875 130.652344 C 91.441406 107.246094 67.199219 161.425781 61.433594 197.210938 C 56.261719 229.308594 66.507813 301.648438 84.726563 319.90625 C 92.871094 328.066406 104.390625 327.1875 109.628906 318.910156 C 121.78125 299.695313 78.078125 244.671875 100.074219 225.445313 Z M 100.074219 225.445313 "/>
</g>
</svg>
